<svg xmlns="http://www.w3.org/2000/svg" fill="none" fill-rule="evenodd" stroke="#030404" stroke-linecap="round" stroke-linejoin="round" stroke-miterlimit="1.414" stroke-width="2.08" viewBox="0 0 124 124"><path d="M86.115 41.97l-23.84-16.665-23.84 16.665M80.7 38.667v55.45H43.85v-55.45"/><path d="M55.728 94.116V74.174a6.55 6.55 0 0 1 6.546-6.547 6.55 6.55 0 0 1 6.547 6.547v19.942M80.7 52.1l14.9 8.667v33.338H80.7M43.85 52.1l-14.913 8.667v33.338H43.85m18.618-49.697s.568-2.27 3.28-2.775c2.323-.432 4.594.585 5.392 3.414 1.822 6.48-8.864 12.32-8.864 12.32s-10.687-5.84-8.872-12.32c.797-2.83 3.068-3.846 5.392-3.414 2.715.506 3.283 2.775 3.283 2.775h.4zM95.6 94.116h12.53m-91.732 0h12.528"/></svg>